<svg width="57" height="57" viewBox="0 0 57 57" fill="none" xmlns="http://www.w3.org/2000/svg">
<rect x="0.5" y="0.5" width="56" height="56" rx="9.5" fill="white"/>
<rect x="0.5" y="0.5" width="56" height="56" rx="9.5" stroke="#E5E7EB"/>
<path d="M20.6464 28.1464C20.4512 28.3417 20.4512 28.6583 20.6464 28.8536L23.8284 32.0355C24.0237 32.2308 24.3403 32.2308 24.5355 32.0355C24.7308 31.8403 24.7308 31.5237 24.5355 31.3284L21.7071 28.5L24.5355 25.6716C24.7308 25.4763 24.7308 25.1597 24.5355 24.9645C24.3403 24.7692 24.0237 24.7692 23.8284 24.9645L20.6464 28.1464ZM21 28.5V29H36V28.5V28H21V28.5Z" fill="black"/>
</svg>
