<svg width="24" height="24" viewBox="0 0 24 24" fill="none" xmlns="http://www.w3.org/2000/svg">
<circle cx="12" cy="12" r="12" fill="#D3590B"/>
<path d="M11.6378 8.57072C11.7818 8.26415 12.2178 8.26415 12.3618 8.57072L13.2808 10.527C13.3205 10.6114 13.3884 10.6793 13.4728 10.719L15.4291 11.638C15.7357 11.782 15.7357 12.218 15.4291 12.362L13.4728 13.281C13.3884 13.3207 13.3205 13.3886 13.2808 13.473L12.3618 15.4293C12.2178 15.7359 11.7818 15.7359 11.6378 15.4293L10.7188 13.473C10.6791 13.3886 10.6112 13.3207 10.5268 13.281L8.57052 12.362C8.26395 12.218 8.26395 11.782 8.57052 11.638L10.5268 10.719C10.6112 10.6793 10.6791 10.6114 10.7188 10.527L11.6378 8.57072Z" fill="white"/>
</svg>
