<svg width="57" height="57" viewBox="0 0 57 57" fill="none" xmlns="http://www.w3.org/2000/svg">
<rect x="0.5" y="0.5" width="56" height="56" rx="9.5" fill="white"/>
<rect x="0.5" y="0.5" width="56" height="56" rx="9.5" stroke="#E5E7EB"/>
<path d="M22.7861 26.7143C23.7722 26.7145 24.5713 27.5143 24.5713 28.5004C24.5711 29.4863 23.772 30.2854 22.7861 30.2856C21.8 30.2856 21.0002 29.4865 21 28.5004C21 27.5142 21.7999 26.7143 22.7861 26.7143ZM28.5 26.7143C29.4862 26.7143 30.2861 27.5142 30.2861 28.5004C30.2859 29.4865 29.4861 30.2856 28.5 30.2856C27.5139 30.2856 26.7141 29.4865 26.7139 28.5004C26.7139 27.5142 27.5138 26.7143 28.5 26.7143ZM34.2139 26.7143C35.2001 26.7143 36 27.5142 36 28.5004C35.9998 29.4865 35.2 30.2856 34.2139 30.2856C33.228 30.2854 32.4289 29.4863 32.4287 28.5004C32.4287 27.5143 33.2278 26.7145 34.2139 26.7143Z" fill="#6B7280"/>
</svg>
